<svg width="156" height="135" viewBox="0 0 156 135" fill="none" xmlns="http://www.w3.org/2000/svg">
<path d="M143.15 132.42C143.15 133.471 114.151 134.321 78.3791 134.321C42.6076 134.321 13.6084 133.468 13.6084 132.42C13.6084 131.372 42.6076 130.519 78.3791 130.519C114.151 130.519 143.15 131.372 143.15 132.42Z" fill="#F5F5F5"/>
<path d="M41.3145 106.518C43.7952 102.537 41.2866 99.9414 38.3191 97.7429C35.3516 95.5444 31.46 94.639 27.8258 95.2995C29.4165 95.7119 30.2879 97.5972 30.0088 99.2158C29.7297 100.834 28.57 102.171 27.2677 103.173C26.3932 103.845 25.4257 104.416 24.6753 105.225C23.9249 106.035 23.4102 107.176 23.6924 108.242C23.9745 109.309 25.3017 110.081 26.2506 109.52C24.1234 110.652 22.6226 112.888 22.3869 115.288C22.1512 117.685 23.1652 119.97 26.2661 121.089L43.9099 121.244C47.3023 120.748 50.0682 117.498 50.0186 114.069C49.969 110.639 46.3596 106.326 41.3114 106.521L41.3145 106.518Z" fill="#407BFF"/>
<g opacity="0.8">
<path d="M41.3145 106.518C43.7952 102.537 41.2866 99.9414 38.3191 97.7429C35.3516 95.5444 31.46 94.639 27.8258 95.2995C29.4165 95.7119 30.2879 97.5972 30.0088 99.2158C29.7297 100.834 28.57 102.171 27.2677 103.173C26.3932 103.845 25.4257 104.416 24.6753 105.225C23.9249 106.035 23.4102 107.176 23.6924 108.242C23.9745 109.309 25.3017 110.081 26.2506 109.52C24.1234 110.652 22.6226 112.888 22.3869 115.288C22.1512 117.685 23.1652 119.97 26.2661 121.089L43.9099 121.244C47.3023 120.748 50.0682 117.498 50.0186 114.069C49.969 110.639 46.3596 106.326 41.3114 106.521L41.3145 106.518Z" fill="white"/>
</g>
<path opacity="0.3" d="M27.9684 95.3026C27.5064 95.2778 39.4788 99.5942 35.0136 103.988C30.6011 108.329 26.2537 109.52 26.2537 109.52C26.2537 109.52 32.105 108.18 35.5965 105.033C38.9827 101.982 37.4602 95.8142 27.9653 95.3026H27.9684Z" fill="#407BFF"/>
<path d="M25.2676 108.45C24.3745 107.232 25.3885 105.517 26.6351 105.03C25.6738 105.923 24.8614 107.108 25.2676 108.45Z" fill="white"/>
<path d="M23.6644 115.846C22.7714 114.627 23.7854 112.912 25.0319 112.425C24.0707 113.319 23.2582 114.503 23.6644 115.846Z" fill="white"/>
<path d="M37.671 121.533C37.671 121.533 38.7997 113.877 38.5486 107.604C38.3532 102.71 38.0462 93.0451 38.3594 86.8961C38.6726 80.7471 38.8897 72.3872 39.1501 71.6709C39.392 71.0042 74.6518 68.2755 94.2399 65.6212C96.2462 65.3483 124.948 72.8151 125.016 73.3485C125.14 74.3532 121.5 107.352 121.5 111.117C121.5 114.881 120.746 121.533 120.746 121.533H37.671Z" fill="#407BFF"/>
<path opacity="0.7" d="M37.671 121.533C37.671 121.533 38.7997 113.877 38.5486 107.604C38.3532 102.71 38.0462 93.0451 38.3594 86.8961C38.6726 80.7471 38.8897 72.3872 39.1501 71.6709C39.392 71.0042 74.6518 68.2755 94.2399 65.6212C96.2462 65.3483 124.948 72.8151 125.016 73.3485C125.14 74.3532 121.5 107.352 121.5 111.117C121.5 114.881 120.746 121.533 120.746 121.533H37.671Z" fill="white"/>
<path d="M114.293 109.811C112.538 108.599 105.384 109.796 101.741 109.811C98.0974 109.827 91.6197 109.349 87.57 109.684C83.5203 110.019 39.2525 109.573 38.5827 109.684C38.5827 109.684 38.561 111.092 38.4028 113.551C38.2416 116.047 37.671 119.415 37.671 119.415C37.671 119.415 113.961 119.539 114.836 119.415C115.716 119.291 116.051 111.027 114.296 109.815L114.293 109.811Z" fill="#407BFF"/>
<g opacity="0.3">
<path d="M112.755 84.4278C112.538 84.0123 111.974 83.5441 111.515 83.6402H111.465C110.888 83.6433 110.275 83.7984 109.884 84.2263C109.493 84.6542 109.431 85.4015 109.865 85.7829C110.15 86.0341 110.563 86.0713 110.944 86.093C111.506 86.1209 112.132 86.1085 112.541 85.724C112.882 85.4015 112.975 84.8465 112.755 84.4309V84.4278Z" fill="black"/>
</g>
<g opacity="0.3">
<path d="M111.233 86.955C111.133 86.769 110.879 86.555 110.671 86.5984H110.65C110.389 86.5984 110.113 86.6698 109.937 86.862C109.76 87.0543 109.732 87.3923 109.927 87.5659C110.057 87.6806 110.24 87.6962 110.414 87.7055C110.668 87.7179 110.951 87.7117 111.137 87.538C111.292 87.3923 111.332 87.1411 111.233 86.955Z" fill="black"/>
</g>
<path d="M98.4354 68.6972C98.4354 68.6972 98.2803 69.0972 98.4354 69.274C98.5904 69.4507 98.9439 70.0275 99.499 69.9841C100.054 69.9406 99.7439 69.1437 99.7439 69.1437C99.7439 69.1437 99.8773 68.9236 99.499 68.8119C99.1206 68.7003 98.4819 68.5391 98.4354 68.7003V68.6972Z" fill="#407BFF"/>
<path d="M107.527 71.9593C107.527 71.9593 107.614 71.5407 107.431 71.3919C107.248 71.243 106.805 70.7345 106.265 70.8709C105.726 71.0074 106.166 71.7423 106.166 71.7423C106.166 71.7423 106.073 71.9841 106.46 72.0306C106.851 72.0771 107.509 72.1299 107.527 71.9624V71.9593Z" fill="#407BFF"/>
<path d="M102.045 68.7871C101.955 68.8057 101.313 68.8988 101.226 69.1623C101.136 69.429 101.381 69.5623 101.636 69.6492C101.89 69.7391 102.333 69.5623 102.312 69.305C102.29 69.0507 102.222 68.7499 102.045 68.784V68.7871Z" fill="#407BFF"/>
<path d="M97.3502 66.5948C96.9067 66.5049 96.6401 66.6847 96.5098 66.815C96.3765 66.9483 96.1998 67.3235 96.5098 67.4352C96.8199 67.5468 97.3967 67.4134 97.4835 67.215C97.5734 67.0165 97.3502 66.5948 97.3502 66.5948Z" fill="#407BFF"/>
<path d="M99.527 67.798L99.22 67.9592C99.22 67.9592 99.2262 68.2011 99.2944 68.2135C99.3626 68.2259 99.6014 68.2135 99.6014 68.2135C99.6014 68.2135 99.7099 67.9654 99.6603 67.922C99.6107 67.8786 99.5301 67.798 99.5301 67.798H99.527Z" fill="#407BFF"/>
<path d="M105.158 69.7701L104.851 69.9314C104.851 69.9314 104.857 70.1732 104.925 70.1856C104.994 70.198 105.232 70.1856 105.232 70.1856C105.232 70.1856 105.341 69.9376 105.291 69.8941C105.242 69.8507 105.161 69.7701 105.161 69.7701H105.158Z" fill="#407BFF"/>
<path d="M103.732 72.2849L103.425 72.4462C103.425 72.4462 103.431 72.688 103.499 72.7004C103.567 72.7128 103.806 72.7004 103.806 72.7004C103.806 72.7004 103.914 72.4524 103.865 72.4089C103.815 72.3655 103.735 72.2849 103.735 72.2849H103.732Z" fill="#407BFF"/>
<path d="M113.18 72.0399L112.873 72.2012C112.873 72.2012 112.879 72.443 112.947 72.4554C113.016 72.4678 113.254 72.4554 113.254 72.4554C113.254 72.4554 113.363 72.2074 113.313 72.164C113.264 72.1205 113.183 72.0399 113.183 72.0399H113.18Z" fill="#407BFF"/>
<path d="M97.6045 68.3251C97.5828 68.3406 97.282 68.5577 97.282 68.5577L97.6045 68.7685L97.7657 68.629L97.8525 68.4119L97.6045 68.3251Z" fill="#407BFF"/>
<path d="M88.4909 68.998C88.4692 69.0135 88.1685 69.2305 88.1685 69.2305L88.4909 69.4414L88.6522 69.3019L88.739 69.0848L88.4909 68.998Z" fill="#407BFF"/>
<path d="M81.5017 69.5747C81.48 69.5902 81.1792 69.8073 81.1792 69.8073L81.5017 70.0182L81.6629 69.8786L81.7498 69.6616L81.5017 69.5747Z" fill="#407BFF"/>
<path d="M92.0105 68.1235C91.995 68.1359 91.7717 68.2972 91.7717 68.2972L92.0105 68.4553L92.1314 68.3499L92.1965 68.1887L92.0105 68.1235Z" fill="#407BFF"/>
<path d="M83.9419 72.0554C83.9264 72.0647 83.7031 72.2291 83.7031 72.2291L83.9419 72.3872L84.0628 72.2818L84.1279 72.1205L83.9419 72.0554Z" fill="#407BFF"/>
<path d="M100.702 70.8554C100.702 70.8554 100.352 71.2306 100.404 71.2306C100.457 71.2306 100.702 71.5686 100.702 71.5686H101.065L101.322 71.336L101.204 70.998L100.699 70.8554H100.702Z" fill="#407BFF"/>
<path d="M96.9191 71.3608C96.9191 71.3608 96.5687 71.736 96.6214 71.736C96.6741 71.736 96.9191 72.074 96.9191 72.074H97.2819L97.5392 71.8415L97.4214 71.5035L96.916 71.3608H96.9191Z" fill="#407BFF"/>
<path d="M109.053 71.7329C109.053 71.7329 108.702 72.1081 108.755 72.1081C108.808 72.1081 109.053 72.4461 109.053 72.4461H109.415L109.673 72.2136L109.555 71.8756L109.049 71.7329H109.053Z" fill="#407BFF"/>
<path d="M95.3067 68.1794L94.5811 68.5018C94.5811 68.5018 94.4012 68.8398 94.4384 68.8398C94.4756 68.8398 94.9811 69.2026 95.0214 69.2026C95.0617 69.2026 95.5144 68.8026 95.5144 68.8026L95.6043 68.3871L95.3067 68.1794Z" fill="#407BFF"/>
<path d="M90.7824 68.1266C90.7235 68.1452 90.2615 68.2445 90.1932 68.4305C90.125 68.6166 90.125 69.643 90.2615 69.7267C90.3948 69.8104 90.8351 69.6926 90.953 69.6244C91.0708 69.5561 91.322 69.0848 91.322 69.0848C91.322 69.0848 90.9375 68.0739 90.7824 68.1235V68.1266Z" fill="#407BFF"/>
<path d="M83.0427 69.0879C82.9837 69.1065 82.5217 69.2057 82.4535 69.3918C82.3853 69.5778 82.3853 70.6042 82.5217 70.6879C82.6551 70.7717 83.0954 70.6538 83.2132 70.5856C83.331 70.5174 83.5822 70.0461 83.5822 70.0461C83.5822 70.0461 83.1977 69.0352 83.0427 69.0848V69.0879Z" fill="#407BFF"/>
<path d="M111.378 70.6229C111.319 70.6415 110.857 70.7407 110.789 70.9267C110.721 71.1128 110.721 72.1392 110.857 72.2229C110.994 72.3066 111.431 72.1888 111.549 72.1206C111.667 72.0523 111.918 71.581 111.918 71.581C111.918 71.581 111.533 70.5701 111.378 70.6197V70.6229Z" fill="#407BFF"/>
<path d="M114.795 72.9144C114.845 72.9516 115.195 73.271 115.385 73.2183C115.574 73.1655 116.411 72.5702 116.402 72.4089C116.392 72.2508 116.042 71.9624 115.918 71.9066C115.794 71.8508 115.264 71.919 115.264 71.919C115.264 71.919 114.665 72.8213 114.795 72.9144Z" fill="#407BFF"/>
<path d="M92.2088 69.8786C92.1003 69.8879 91.8739 70.1608 91.8522 70.2476C91.8305 70.3345 91.9608 70.6135 92.1127 70.6569C92.2646 70.7004 92.5251 70.5701 92.5344 70.4864C92.5437 70.3996 92.5871 70.0523 92.5344 70.0213C92.4817 69.9903 92.2088 69.8817 92.2088 69.8817V69.8786Z" fill="#407BFF"/>
<path d="M108.296 69.7918C108.187 69.8011 107.961 70.074 107.939 70.1608C107.918 70.2476 108.048 70.5267 108.2 70.5701C108.352 70.6135 108.612 70.4833 108.622 70.3996C108.631 70.3128 108.674 69.9655 108.622 69.9345C108.569 69.9034 108.296 69.7949 108.296 69.7949V69.7918Z" fill="#407BFF"/>
<path d="M89.6848 70.3252C89.4988 70.3593 89.012 70.781 89.012 70.781L89.2321 71.2523C89.2321 71.2523 90.0756 71.3702 90.1252 71.3547C90.1748 71.3391 90.4446 71.1004 90.4446 71.1004L90.0911 70.4275L89.6879 70.3252H89.6848Z" fill="#407BFF"/>
<path d="M80.9063 70.688C80.7202 70.7221 80.2334 71.1438 80.2334 71.1438L80.4536 71.6151C80.4536 71.6151 81.297 71.7329 81.3466 71.7174C81.3962 71.7019 81.666 71.4632 81.666 71.4632L81.3125 70.7903L80.9094 70.688H80.9063Z" fill="#407BFF"/>
<path d="M77.2597 70.9794C77.238 70.9949 76.9373 71.212 76.9373 71.212L77.2597 71.4229L77.421 71.2833L77.5078 71.0663L77.2597 70.9794Z" fill="#407BFF"/>
<path d="M74.8036 69.1685C74.7447 69.1841 74.2827 69.2585 74.2145 69.4042C74.1463 69.5469 74.1463 70.3407 74.2827 70.4058C74.416 70.4709 74.8564 70.381 74.9742 70.3283C75.092 70.2756 75.3432 69.9128 75.3432 69.9128C75.3432 69.9128 74.9587 69.1313 74.8036 69.1716V69.1685Z" fill="#407BFF"/>
<path d="M73.5883 70.6786C73.486 70.6973 73.2131 70.9329 73.2131 70.9329L73.3341 71.1965C73.3341 71.1965 73.8023 71.2616 73.8302 71.2523C73.8581 71.243 74.007 71.1097 74.007 71.1097L73.8116 70.7345L73.5883 70.6786Z" fill="#407BFF"/>
<path d="M96.3671 70.198C96.3485 70.2104 96.0818 70.4058 96.0818 70.4058L96.3671 70.5949L96.5097 70.4709L96.5872 70.2787L96.3671 70.2011V70.198Z" fill="#407BFF"/>
<path d="M94.2709 71.1562C94.2181 71.1717 93.8088 71.2616 93.7468 71.426C93.6848 71.5903 93.6879 72.502 93.8057 72.5764C93.9267 72.6508 94.3143 72.5454 94.4197 72.4865C94.5251 72.4275 94.7484 72.0089 94.7484 72.0089C94.7484 72.0089 94.4073 71.1128 94.2709 71.1562Z" fill="#407BFF"/>
<path d="M99.0494 71.9872C98.885 72.0182 98.4509 72.3903 98.4509 72.3903L98.6463 72.8089C98.6463 72.8089 99.3936 72.9144 99.4401 72.8989C99.4866 72.8834 99.7254 72.6725 99.7254 72.6725L99.4122 72.0771L99.0525 71.9872H99.0494Z" fill="#407BFF"/>
<path d="M79.0675 69.1561C78.9031 69.1871 78.469 69.5592 78.469 69.5592L78.6643 69.9779C78.6643 69.9779 79.4117 70.0833 79.4582 70.0678C79.5016 70.0523 79.7434 69.8414 79.7434 69.8414L79.4303 69.2461L79.0706 69.1561H79.0675Z" fill="#407BFF"/>
<path d="M68.357 70.3376C68.1927 70.3686 67.7585 70.7407 67.7585 70.7407L67.9539 71.1593C67.9539 71.1593 68.7012 71.2647 68.7477 71.2492C68.7911 71.2337 69.033 71.0228 69.033 71.0228L68.7198 70.4275L68.3601 70.3376H68.357Z" fill="#407BFF"/>
<path d="M40.0493 71.9221C66.3198 73.6524 92.7856 74.4369 119.112 74.2229L124.386 74.1733L119.112 74.2974C92.7856 74.8028 66.2981 74.0183 40.0493 71.919V71.9221Z" fill="white"/>
<path d="M89.3995 80.1145C91.4678 78.2912 94.5934 78.6696 97.3284 79.0075C98.8943 79.1998 100.634 79.268 102.138 78.8742C102.767 78.7099 103.418 78.6509 104.067 78.7099C104.482 78.7471 104.944 78.775 105.471 78.7936C109.685 78.9238 115.565 78.1734 115.865 80.5425C116.089 82.2913 116.417 89.9629 114.622 89.9288C111.174 89.8636 106.622 90.2574 94.2368 89.597C81.852 88.9396 49.169 86.2139 43.0386 86.1271C38.561 86.0651 38.4028 85.9783 38.4028 85.9783L38.7997 74.8152C41.7394 76.2478 45.1069 76.6199 48.3907 76.6757C51.8605 76.7346 55.349 76.4804 58.7941 76.9238C64.0872 77.606 69.2532 79.9316 74.5557 79.3114C76.3883 79.0975 78.1744 78.5331 80.0163 78.4091C81.8582 78.2881 83.8738 78.7006 85.0862 80.0928C85.0862 80.0928 85.9203 81.2154 87.0832 81.2154C88.063 81.2154 89.3995 80.1177 89.3995 80.1177V80.1145Z" fill="#407BFF"/>
<path d="M115.654 96.2173C115.413 94.7661 114.228 94.8157 112.687 94.8374C111.93 94.8467 111.174 94.9553 110.445 95.1661C107.304 96.0747 103.645 95.8142 100.271 95.4545C93.0896 94.6824 85.8987 93.7676 78.6644 93.7552C73.8363 93.7459 69.0052 94.1397 64.1803 93.9599C59.8794 93.7986 55.5971 93.1785 51.2931 93.2715C48.9582 93.3211 46.6263 93.5816 44.2945 93.473C42.158 93.3769 39.9719 92.9366 38.2261 91.8606C38.1827 95.1041 38.2726 99.2499 38.406 103.703C38.406 103.703 45.9565 103.216 50.9334 103.681C55.9103 104.146 107.974 105.377 111.552 105.532C115.13 105.687 115.961 98.0809 115.651 96.2173H115.654Z" fill="#407BFF"/>
<g opacity="0.3">
<path d="M99.7625 69.0662C99.5671 68.8864 99.2787 68.8616 99.0152 68.8491C97.3097 68.7685 95.5949 68.9329 93.936 69.3298L93.0522 69.4631C92.6367 69.5313 92.3514 69.9779 92.3793 70.3965C92.4072 70.8182 92.6863 71.1903 93.0367 71.4229C93.3871 71.6554 93.8026 71.7733 94.2119 71.8663C95.2321 72.1019 96.3019 72.2291 97.3283 72.012C98.3547 71.795 99.3345 71.1872 99.809 70.2538C100.001 69.8724 100.082 69.3515 99.7656 69.0662H99.7625Z" fill="black"/>
</g>
<g opacity="0.3">
<path d="M90.2305 68.6104C90.0351 68.4305 89.7467 68.4057 89.4832 68.3933C87.7777 68.3127 86.0629 68.477 84.404 68.8739L83.5202 69.0073C83.1047 69.0755 82.8194 69.522 82.8473 69.9406C82.8752 70.3623 83.1543 70.7345 83.5047 70.967C83.8551 71.1996 84.2706 71.3174 84.6799 71.4104C85.7001 71.6461 86.7699 71.7732 87.7963 71.5562C88.8227 71.3391 89.8026 70.7314 90.277 69.798C90.4692 69.4166 90.5499 68.8956 90.2336 68.6104H90.2305Z" fill="black"/>
</g>
<g opacity="0.3">
<path d="M115.484 79.7673C114.07 78.3502 109.14 78.9052 105.471 78.7905C104.944 78.775 104.482 78.744 104.067 78.7068C103.418 78.6479 102.767 78.7068 102.138 78.8711C100.634 79.2649 98.8943 79.1967 97.3284 79.0044C94.5934 78.6696 91.4678 78.2882 89.3995 80.1115C89.3995 80.1115 88.0631 81.2092 87.0832 81.2092C85.9204 81.2092 85.0862 80.0866 85.0862 80.0866C83.8738 78.6944 81.8582 78.2819 80.0163 78.4029C78.1744 78.5238 76.3883 79.0882 74.5557 79.3052C69.2533 79.9254 64.0872 77.5967 58.7941 76.9176C55.3521 76.4741 51.8637 76.7315 48.3907 76.6695C45.11 76.6137 41.7394 76.2416 38.7998 74.809L38.7719 75.5842C40.0215 76.7284 41.8045 77.8075 43.0913 78.0091C44.8464 78.2851 46.6356 78.1021 48.4062 78.0029C52.1862 77.7889 55.9878 77.9533 59.7367 78.4959C63.8609 79.0913 67.9261 80.1456 72.0843 80.3812C75.1759 80.558 77.1325 79.5347 80.2303 79.5564C82.4102 79.5719 84.463 82.3348 86.6398 82.3968C89.5267 82.4774 89.3561 79.8603 96.5594 80.4339C102.417 80.8991 108.305 80.0463 114.175 79.851C114.609 79.8355 115.047 79.82 115.478 79.7704L115.484 79.7673Z" fill="black"/>
</g>
<g opacity="0.3">
<path d="M115.416 95.5413C114.944 94.7847 113.933 94.8219 112.687 94.8374C111.93 94.8467 111.174 94.9553 110.445 95.1661C107.304 96.0747 103.645 95.8142 100.271 95.4545C93.0895 94.6824 85.8987 93.7676 78.6644 93.7552C73.8363 93.7459 69.0052 94.1397 64.1803 93.9599C59.8794 93.7986 55.5971 93.1785 51.2931 93.2715C48.9582 93.3211 46.6263 93.5816 44.2945 93.473C42.158 93.3769 39.9719 92.9366 38.2261 91.8606C38.223 92.2048 38.2199 92.5614 38.2168 92.9242C41.3021 95.3863 50.1365 95.2126 55.4203 95.0514C70.8719 94.5769 86.3483 95.1475 101.741 96.76C106.16 97.222 110.768 97.746 114.91 95.9475C115.106 95.8638 115.32 95.7367 115.416 95.5444V95.5413Z" fill="black"/>
</g>
<g opacity="0.3">
<path d="M114.293 109.811C112.538 108.599 105.384 109.796 101.741 109.811C98.0974 109.827 91.6198 109.349 87.57 109.684C83.7188 110.004 43.4728 109.613 38.9858 109.672C42.2727 111.207 46.0186 112.134 49.6001 111.824C53.4854 111.486 57.3646 110.745 61.2562 110.98C63.8733 111.139 66.4439 111.731 69.0579 111.948C72.4317 112.227 75.8178 111.874 79.1946 111.632C85.1514 111.204 91.1298 111.126 97.1021 111.046C101.989 110.98 106.876 110.915 111.76 110.853C112.696 110.841 113.661 110.822 114.526 110.46C114.591 110.432 114.656 110.398 114.721 110.363C114.603 110.122 114.464 109.932 114.293 109.815V109.811Z" fill="black"/>
</g>
<g opacity="0.3">
<path d="M111.053 83.7767C110.557 83.9224 110.11 84.2108 109.878 84.6945C109.775 84.9054 109.735 85.1442 109.76 85.3736C109.847 86.1116 110.482 86.3783 111.075 86.3969C111.521 86.4124 111.977 86.2977 112.337 86.0341C112.696 85.7705 112.947 85.3457 112.957 84.9023C112.966 84.5333 112.799 83.9689 112.067 83.7581C111.738 83.6619 111.385 83.6805 111.056 83.7798L111.053 83.7767Z" fill="black"/>
</g>
<g opacity="0.3">
<path d="M78.9403 95.8545C78.4442 96.0002 77.9976 96.2886 77.7651 96.7723C77.6628 96.9832 77.6224 97.222 77.6472 97.4514C77.7341 98.1894 78.3697 98.4561 78.962 98.4747C79.4085 98.4902 79.8644 98.3755 80.2241 98.1119C80.5838 97.8483 80.8349 97.4235 80.8442 96.9801C80.8535 96.6111 80.6861 96.0468 79.9543 95.8359C79.6256 95.7398 79.2721 95.7584 78.9434 95.8545H78.9403Z" fill="black"/>
</g>
<g opacity="0.1">
<path d="M79.5698 81.851C79.3497 81.9161 79.1512 82.0433 79.0489 82.2572C79.0024 82.3503 78.9838 82.4557 78.9962 82.558C79.0365 82.8836 79.3156 83.0014 79.5791 83.0107C79.7776 83.0169 79.9791 82.9673 80.1373 82.8495C80.2954 82.7317 80.4071 82.5456 80.4133 82.3472C80.4164 82.1828 80.3419 81.9348 80.0195 81.8417C79.8737 81.7983 79.7156 81.8076 79.5698 81.851Z" fill="black"/>
</g>
<g opacity="0.1">
<path d="M81.4148 83.3208C80.9745 83.4511 80.5776 83.7053 80.3699 84.1364C80.2799 84.3224 80.2427 84.5364 80.2675 84.741C80.345 85.3953 80.9094 85.6341 81.4365 85.6496C81.8335 85.662 82.2397 85.5628 82.5591 85.3271C82.8785 85.0914 83.1017 84.7162 83.111 84.3193C83.1172 83.9906 82.9684 83.4914 82.3203 83.3022C82.0288 83.2185 81.7125 83.234 81.421 83.3208H81.4148Z" fill="black"/>
</g>
<g opacity="0.1">
<path d="M102.184 100.72C101.744 100.85 101.347 101.104 101.139 101.535C101.049 101.721 101.012 101.935 101.037 102.14C101.115 102.794 101.679 103.033 102.206 103.048C102.603 103.061 103.009 102.962 103.329 102.726C103.648 102.49 103.871 102.115 103.881 101.718C103.887 101.39 103.738 100.89 103.09 100.701C102.798 100.617 102.482 100.633 102.191 100.72H102.184Z" fill="black"/>
</g>
<g opacity="0.1">
<path d="M61.6655 115.964C61.2251 116.094 60.8282 116.348 60.6205 116.779C60.5305 116.965 60.4933 117.179 60.5181 117.384C60.5957 118.038 61.16 118.277 61.6872 118.292C62.0841 118.305 62.4903 118.205 62.8097 117.97C63.1291 117.734 63.3523 117.359 63.3616 116.962C63.3678 116.633 63.219 116.134 62.5709 115.945C62.2794 115.861 61.9631 115.877 61.6717 115.964H61.6655Z" fill="black"/>
</g>
<g opacity="0.1">
<path d="M43.5285 97.7274C43.0882 97.8577 42.6913 98.1119 42.4835 98.543C42.3936 98.729 42.3564 98.943 42.3812 99.1476C42.4587 99.8019 43.023 100.041 43.5502 100.056C43.9471 100.069 44.3533 99.9693 44.6727 99.7337C44.9921 99.498 45.2154 99.1228 45.2247 98.7259C45.2309 98.3972 45.082 97.898 44.4339 97.7088C44.1425 97.6251 43.8262 97.6406 43.5347 97.7274H43.5285Z" fill="black"/>
</g>
<g opacity="0.3">
<path d="M107.087 85.9411C107.195 86.1829 107.363 86.3907 107.598 86.4744C107.701 86.5116 107.812 86.5147 107.915 86.4837C108.24 86.3845 108.305 86.0403 108.265 85.7364C108.234 85.5069 108.144 85.2837 107.995 85.1193C107.846 84.955 107.632 84.8589 107.431 84.8868C107.263 84.9116 107.025 85.0387 106.991 85.4263C106.975 85.6031 107.012 85.7798 107.087 85.9411Z" fill="black"/>
</g>
<g opacity="0.3">
<path d="M98.5811 103.65C98.6896 103.892 98.857 104.1 99.0927 104.183C99.195 104.221 99.3067 104.224 99.409 104.193C99.7346 104.093 99.7997 103.749 99.7594 103.445C99.7284 103.216 99.6384 102.993 99.4896 102.828C99.3408 102.664 99.1268 102.568 98.9253 102.596C98.7578 102.621 98.519 102.748 98.4849 103.135C98.4694 103.312 98.5066 103.489 98.578 103.65H98.5811Z" fill="black"/>
</g>
<g opacity="0.3">
<path d="M54.1396 80.3502C54.2482 80.5921 54.4156 80.7998 54.6513 80.8836C54.7536 80.9208 54.8652 80.9239 54.9676 80.8929C55.2932 80.7936 55.3583 80.4494 55.318 80.1456C55.287 79.9161 55.197 79.6928 55.0482 79.5285C54.8994 79.3641 54.6854 79.268 54.4838 79.2959C54.3164 79.3207 54.0776 79.4479 54.0435 79.8355C54.028 80.0122 54.0652 80.189 54.1365 80.3502H54.1396Z" fill="black"/>
</g>
<g opacity="0.3">
<path d="M59.1103 115.433C59.1103 115.433 59.101 115.433 59.0979 115.43H59.1103V115.433Z" fill="black"/>
</g>
<g opacity="0.3">
<path d="M59.3584 115.449C59.6219 115.449 59.8793 115.377 60.0529 115.195C60.1274 115.114 60.177 115.015 60.1894 114.909C60.2297 114.571 59.9413 114.37 59.6467 114.286C59.4235 114.221 59.1816 114.215 58.9738 114.286C58.763 114.357 58.5893 114.512 58.5335 114.708C58.487 114.869 58.5056 115.142 58.8498 115.328C59.0049 115.412 59.1847 115.449 59.3584 115.449Z" fill="black"/>
</g>
<path d="M101.028 59.1218C102.752 55.9217 102.95 51.9402 101.552 48.5851C101.384 48.182 101.179 47.7726 100.826 47.5184C100.116 47.0067 99.1205 47.3168 98.3422 47.7199C95.3654 49.2673 93.0335 52.0053 91.9793 55.1899C90.9281 58.3745 91.0459 62.3405 92.5157 65.3545C96.0848 64.6754 99.3004 62.3188 101.024 59.1187L101.028 59.1218Z" fill="#407BFF"/>
<g opacity="0.4">
<path d="M101.028 59.1218C102.752 55.9217 102.95 51.9402 101.552 48.5851C101.384 48.182 101.179 47.7726 100.826 47.5184C100.116 47.0067 99.1205 47.3168 98.3422 47.7199C95.3654 49.2673 93.0335 52.0053 91.9793 55.1899C90.9281 58.3745 91.0459 62.3405 92.5157 65.3545C96.0848 64.6754 99.3004 62.3188 101.024 59.1187L101.028 59.1218Z" fill="white"/>
</g>
<path d="M92.3545 66.508C94.0538 61.3885 96.091 56.3372 98.8849 51.7107C98.7392 52.0146 98.5903 52.3185 98.4384 52.6193C96.1996 57.1558 94.3173 61.8505 92.3545 66.508Z" fill="#263238"/>
<path d="M88.9002 55.3201C87.4428 52.5077 84.6706 50.4084 81.5667 49.7665C81.1946 49.689 80.7977 49.6332 80.4411 49.7665C79.7217 50.027 79.4581 50.8952 79.3651 51.6549C79.0178 54.5573 79.8457 57.5869 81.6225 59.9094C83.3993 62.2319 86.3141 64.0955 89.2103 64.5173C90.4754 61.6118 90.3576 58.1388 88.9002 55.3232V55.3201Z" fill="#407BFF"/>
<g opacity="0.4">
<path d="M88.9002 55.3201C87.4428 52.5077 84.6706 50.4084 81.5667 49.7665C81.1946 49.689 80.7977 49.6332 80.4411 49.7665C79.7217 50.027 79.4581 50.8952 79.3651 51.6549C79.0178 54.5573 79.8457 57.5869 81.6225 59.9094C83.3993 62.2319 86.3141 64.0955 89.2103 64.5173C90.4754 61.6118 90.3576 58.1388 88.9002 55.3232V55.3201Z" fill="white"/>
</g>
<path d="M88.9003 63.3575C86.0692 60.0923 83.4986 56.5667 81.2505 52.8736C83.7653 56.2132 86.4847 59.9466 88.9003 63.3575Z" fill="#263238"/>
<path d="M105.481 65.3855C107.394 64.5266 108.885 62.7746 109.425 60.7466C109.49 60.5048 109.543 60.2443 109.468 60.0024C109.323 59.5187 108.758 59.3109 108.262 59.221C106.355 58.883 104.324 59.314 102.724 60.4024C101.124 61.4908 99.7812 63.3482 99.3936 65.2429C101.266 66.1886 103.567 66.2413 105.481 65.3824V65.3855Z" fill="#407BFF"/>
<g opacity="0.4">
<path d="M105.481 65.3855C107.394 64.5266 108.885 62.7746 109.425 60.7466C109.49 60.5048 109.543 60.2443 109.468 60.0024C109.323 59.5187 108.758 59.3109 108.262 59.221C106.355 58.883 104.324 59.314 102.724 60.4024C101.124 61.4908 99.7812 63.3482 99.3936 65.2429C101.266 66.1886 103.567 66.2413 105.481 65.3824V65.3855Z" fill="white"/>
</g>
<path d="M100.169 65.0847C102.389 63.28 104.826 61.7048 107.384 60.421C105.046 62.0676 102.631 63.6273 100.169 65.0847Z" fill="#263238"/>
<path d="M100.969 66.8026C100.969 66.7158 100.956 66.632 100.95 66.5483C101.087 66.4584 101.229 66.384 101.384 66.3343C101.843 66.1824 102.423 66.2971 102.668 66.7095C102.501 66.046 102.014 65.4692 101.387 65.1932C101.697 64.7591 102.008 64.3219 102.318 63.8878C101.846 63.9436 101.372 64.0025 100.901 64.0583C101.115 63.3916 101.167 62.6722 101.053 61.9807C100.811 62.6908 100.271 63.2893 99.6013 63.6273C98.7331 62.7622 97.5268 62.235 96.2059 62.2691C93.6384 62.3311 91.6073 64.4645 91.6724 67.0351C91.7344 69.6026 93.8678 71.6337 96.4384 71.5686C99.009 71.5035 101.037 69.3732 100.972 66.8026H100.969Z" fill="#263238"/>
<g opacity="0.1">
<path d="M95.2385 63.1405C94.9501 63.2428 94.4788 63.5095 94.2245 63.6769C93.4307 64.1978 92.733 64.9234 92.4446 65.8289C92.1562 66.7343 92.3485 67.8258 93.071 68.4398C93.4183 68.7344 93.9547 68.8987 94.3237 68.6321C94.516 68.4956 94.6214 68.2724 94.7207 68.0584C95.2943 66.8243 95.8711 65.587 96.4447 64.3529C96.5471 64.1296 96.6525 63.8971 96.7114 63.6583C96.7858 63.3575 96.5688 63.0567 96.2618 63.0319C95.9703 63.0071 95.592 63.0164 95.2416 63.1405H95.2385Z" fill="white"/>
</g>
<path d="M86.0692 61.2335C85.9824 61.2335 85.8987 61.2428 85.8149 61.2459C85.7281 61.1094 85.6568 60.9637 85.6103 60.8086C85.4708 60.3466 85.5979 59.7698 86.0165 59.5342C85.3498 59.6861 84.7607 60.1575 84.4692 60.7776C84.0413 60.4582 83.6133 60.1357 83.1854 59.8164C83.2319 60.2908 83.2753 60.7652 83.3219 61.2366C82.6614 61.004 81.942 60.9358 81.2505 61.0319C81.9544 61.2924 82.5404 61.8443 82.8598 62.5234C81.973 63.3699 81.4179 64.5607 81.4179 65.8847C81.4179 68.4522 83.5017 70.536 86.0692 70.536C88.6367 70.536 90.7205 68.4522 90.7205 65.8847C90.7205 63.3172 88.6367 61.2335 86.0692 61.2335Z" fill="#263238"/>
<g opacity="0.1">
<path d="M82.2644 66.8739C82.3605 67.1654 82.6148 67.6429 82.776 67.9034C83.2784 68.7096 83.9854 69.4259 84.8815 69.736C85.7777 70.0461 86.8754 69.8817 87.5079 69.1747C87.8118 68.8368 87.9886 68.3034 87.7312 67.9282C87.5979 67.7328 87.3777 67.6212 87.1668 67.5158C85.9451 66.9111 84.7234 66.3065 83.5047 65.7018C83.2846 65.5933 83.0551 65.4816 82.8194 65.4165C82.5218 65.3359 82.2148 65.5436 82.1807 65.8506C82.1497 66.1421 82.1466 66.5204 82.2644 66.8739Z" fill="white"/>
</g>
<path d="M37.4757 112.639C37.3796 112.639 37.2834 112.649 37.1904 112.655C37.0943 112.5 37.0137 112.339 36.9609 112.165C36.8059 111.647 36.9454 111.002 37.4168 110.739C36.6695 110.909 36.0121 111.436 35.6834 112.128C35.2059 111.768 34.7252 111.412 34.2477 111.052C34.2973 111.582 34.35 112.112 34.3996 112.643C33.6585 112.382 32.8554 112.305 32.0802 112.416C32.8678 112.708 33.5252 113.328 33.8818 114.088C32.8895 115.036 32.2694 116.37 32.2694 117.849C32.2694 120.723 34.6012 123.055 37.4757 123.055C40.3502 123.055 42.682 120.723 42.682 117.849C42.682 114.974 40.3502 112.643 37.4757 112.643V112.639Z" fill="#263238"/>
<g opacity="0.1">
<path d="M33.2182 118.953C33.3267 119.278 33.612 119.812 33.7919 120.103C34.3531 121.006 35.1469 121.806 36.1485 122.156C37.1532 122.506 38.3811 122.317 39.0881 121.526C39.4292 121.148 39.6246 120.553 39.3362 120.131C39.1874 119.914 38.9424 119.787 38.7036 119.669C37.3361 118.993 35.9687 118.314 34.6043 117.638C34.3593 117.517 34.0989 117.393 33.8353 117.322C33.5004 117.232 33.1593 117.464 33.1221 117.809C33.088 118.134 33.0849 118.559 33.2151 118.953H33.2182Z" fill="white"/>
</g>
<path d="M85.4769 121.365H15.6891C15.6891 121.365 21.7885 127.406 28.3747 128.624C29.7484 128.879 33.0384 129.027 37.3796 129.102L39.4757 130.5H114.309L116.346 129.139C122.169 129.083 126.706 128.931 128.383 128.621C134.97 127.403 141.069 121.362 141.069 121.362H85.48L85.4769 121.365Z" fill="#263238"/>
<path opacity="0.3" d="M85.4769 121.365H15.6891C15.6891 121.365 21.7885 127.406 28.3747 128.624C29.7484 128.879 33.0384 129.027 37.3796 129.102L39.4757 130.5H114.309L116.346 129.139C122.169 129.083 126.706 128.931 128.383 128.621C134.97 127.403 141.069 121.362 141.069 121.362H85.48L85.4769 121.365Z" fill="white"/>
<path d="M35.15 129.117C61.4298 128.934 90.9127 128.944 117.196 129.142C90.9158 129.325 61.4329 129.316 35.15 129.117Z" fill="#263238"/>
<path d="M25.3141 123.083C36.809 122.878 49.5876 122.882 61.0887 123.083C49.5845 123.285 36.8121 123.288 25.3141 123.083Z" fill="white"/>
<path d="M66.8562 123.083C69.1074 122.872 71.3617 122.869 73.613 123.083C71.3617 123.297 69.1074 123.294 66.8562 123.083Z" fill="white"/>
</svg>
