<svg width="20" height="12" viewBox="0 0 20 12" fill="none" xmlns="http://www.w3.org/2000/svg">
<g filter="url(#filter0_d_1755_460)">
<path d="M5 4C6.10457 4 7 3.10457 7 2C7 0.89543 6.10457 0 5 0C3.89543 0 3 0.89543 3 2C3 3.10457 3.89543 4 5 4Z" fill="black"/>
<path d="M10 4C11.1046 4 12 3.10457 12 2C12 0.89543 11.1046 0 10 0C8.89543 0 8 0.89543 8 2C8 3.10457 8.89543 4 10 4Z" fill="black"/>
<path d="M15 4C16.1046 4 17 3.10457 17 2C17 0.89543 16.1046 0 15 0C13.8954 0 13 0.89543 13 2C13 3.10457 13.8954 4 15 4Z" fill="black"/>
</g>
<defs>
<filter id="filter0_d_1755_460" x="-1" y="0" width="22" height="12" filterUnits="userSpaceOnUse" color-interpolation-filters="sRGB">
<feFlood flood-opacity="0" result="BackgroundImageFix"/>
<feColorMatrix in="SourceAlpha" type="matrix" values="0 0 0 0 0 0 0 0 0 0 0 0 0 0 0 0 0 0 127 0" result="hardAlpha"/>
<feOffset dy="4"/>
<feGaussianBlur stdDeviation="2"/>
<feComposite in2="hardAlpha" operator="out"/>
<feColorMatrix type="matrix" values="0 0 0 0 0 0 0 0 0 0 0 0 0 0 0 0 0 0 0.25 0"/>
<feBlend mode="normal" in2="BackgroundImageFix" result="effect1_dropShadow_1755_460"/>
<feBlend mode="normal" in="SourceGraphic" in2="effect1_dropShadow_1755_460" result="shape"/>
</filter>
</defs>
</svg>
